<?xml version="1.0" encoding="utf-8"?>
<!-- Generator: Adobe Illustrator 27.3.1, SVG Export Plug-In . SVG Version: 6.00 Build 0)  -->
<svg version="1.1" id="Camada_1" xmlns="http://www.w3.org/2000/svg" xmlns:xlink="http://www.w3.org/1999/xlink" x="0px" y="0px"
	 viewBox="0 0 1765 629.6" style="enable-background:new 0 0 1765 629.6;" xml:space="preserve">
<style type="text/css">
	.st0{fill:#FFFFFF;}
	.st1{fill:#EB2939;}
	.st2{enable-background:new    ;}
	.st3{fill:#2C77BC;}
	.st4{fill:none;stroke:#000000;stroke-width:4.7237;stroke-miterlimit:10;}
</style>
<g>
	<rect x="2" y="2.6" class="st0" width="1761" height="625.3"/>
	<rect x="2.4" y="2.4" class="st1" width="1237.3" height="303"/>
	<g class="st2">
		<path class="st0" d="M216.6,242.7h-16l-28.3-71.9l-28,71.9h-16l-62.1-159H51.4V73.2h60.8v10.5h-14L143,198.6l20.3-51.1l-25-63.8
			h-14V73.2h96.6v10.5h-17.8l-17.3,44.6l28.8,72.1l45.6-116.7h-18V73.2h49.1v10.5h-12.5L216.6,242.7z M178.1,108.7l10-25h-19.8
			L178.1,108.7z"/>
		<path class="st0" d="M344.5,238.4h-58.8v-10.5h14.8v-87.6H284v-8l36-9.8h9.8v105.4h14.8L344.5,238.4L344.5,238.4z M314,61.7
			c9.8,0,17.8,8,17.8,17.8c-0.8,23.6-34.8,23.6-35.5,0C296.2,69.7,304.2,61.7,314,61.7z"/>
		<path class="st0" d="M412.9,238.4h-58.8v-10.5h14.8V70.4H351v-6.8l36-9.8h11v174h14.8L412.9,238.4L412.9,238.4z M476,238.4h-39.8
			l-37.6-57.1l39.1-45.8h-15V125h49.8v10.5h-13.8l-31.5,35.5l38.3,56.8H476V238.4z"/>
		<path class="st0" d="M542.3,238.4h-58.8v-10.5h14.8v-87.6h-16.5v-8l36-9.8h9.8v105.4h14.8L542.3,238.4L542.3,238.4z M511.8,61.7
			c9.8,0,17.8,8,17.8,17.8c-0.8,23.6-34.8,23.6-35.5,0C494,69.7,502,61.7,511.8,61.7z"/>
		<path class="st0" d="M740.1,238.4H621.9v-10.5h19V83.7h-19V73.2H692v10.5h-18.8v140h53.3v-18.5h13.5L740.1,238.4L740.1,238.4z"/>
		<path class="st0" d="M747.6,181.8c0-34.8,24.3-59.8,57.8-59.8c77.2,0.2,77.2,119.3,0,119.7C771.9,241.7,747.6,216.4,747.6,181.8z
			 M779.4,181.8c0,27.8,10.8,47.3,26,47.3c34.8,0.3,34.6-95.3,0-94.9C790.2,134.3,779.4,153.8,779.4,181.8z"/>
		<path class="st0" d="M979.4,135.5h-11l-40.3,106.2h-9.8l-42.8-106.2h-6.8V125h48.6v10.5h-10.8l25.3,62.3l24-62.3h-15V125h38.6
			L979.4,135.5L979.4,135.5z"/>
		<path class="st0" d="M1091.4,224.9c-24.5,13.8-33.3,16.8-50.8,16.8c-33.6,0-55.8-23.8-55.8-59.3c-2.1-75.1,105-80.9,105.7-14.8
			v9.5h-74.9c0,31,14,50.3,36.6,50.3c9.3,0,14.3-2,33.6-13.5L1091.4,224.9z M1059.3,164.3v-6c0-15-7.3-25.5-17.5-25.5
			c-13.3,0-23.8,12.5-26,31.5L1059.3,164.3L1059.3,164.3z"/>
		<path class="st0" d="M1118.1,240.7h-12.3v-35.5h13.8v6.8c0,10,14,19,29.5,19c12,0,19.5-5.3,19.5-13.3c0-10-6.3-15-30.8-24.3
			c-24.3-9.3-33.3-19.3-33.3-36.8c0-20.8,16-34.5,40.1-34.5c12.3,0,20.8,2.5,28,8.5l1.5-9h13l-6.3,36h-12.8c1-2.8,1.5-6,1.5-8.3
			c0-8.5-12.3-16.5-24.8-16.5c-10.8,0-18,5.5-18,14c0,9.3,4,12.3,30.6,22.8c24.5,9.8,32.8,19.3,32.8,37.3c0,22-14.5,34.8-39.8,34.8
			c-14.5,0-24.8-3.2-32.3-10L1118.1,240.7L1118.1,240.7z"/>
	</g>
	<g class="st2">
		<path class="st1" d="M238,361.1c28.5,19.8,31.4,59.7,8.5,83.6c-10.2,10.8-24.2,18.1-42.2,21.9c-12.1,2.8-32.5,4.2-61.4,4.2v64.7
			c0,12.5,0.8,20.4,2.4,23.7c1.6,3.3,4.6,5.9,9.1,7.7c2.8,1.4,7.1,2.3,13,2.7v6.7H59.2v-6.7c6.4-0.4,11.1-1.3,13.9-2.7
			c4-2,6.9-4.6,8.6-7.9c1.7-3.2,2.6-11.1,2.6-23.6V417.3c0-9.5-0.5-15.7-1.5-18.7c-1.4-4.2-4-7.8-7.7-10.7
			c-3.7-2.9-7.1-4.8-10.1-5.6l-4.2-1.2c0.6-1,1.5-2.4,2.7-4.1c1.2-1.7,4.2-4.7,9.1-9.1c4.8-4.3,10.1-8.2,15.9-11.5
			c5.7-3.3,13.5-6.3,23.3-9.1c9.8-2.7,20.2-4.1,31.3-4.1h16.6C196,343.3,222.2,349.2,238,361.1z M187.3,445.2
			c16.5-14.4,16.6-62.2,0-76.5c-8.3-8.1-20.6-12.1-36.9-12.1h-7.6v79.5v21.2C159.9,458.8,177.4,455.7,187.3,445.2z"/>
		<path class="st1" d="M393.2,554.6l2.7,3.6c-3.2,4.2-8,8.1-14.4,11.6c-6.4,3.5-13.5,5.5-21.3,5.9c-8.3,0.4-15-1.4-20.3-5.4
			c-4.8-3.8-7.8-9.5-8.8-16.9c-23.2,18.8-51,31.4-71,14.7c-7.8-6.7-10.3-20.8-7.1-32.3c0.9-3.5,3-8,6.4-13.3
			c3.3-5.3,7.7-10.2,13.1-14.5s13.2-8.3,23.4-11.9c10.2-3.6,21.9-5.9,35.2-7v-16.6c0-9.5-0.6-16-1.8-19.7c-1.2-3.4-3.1-6-5.7-7.7
			c-4.3-3.2-8.7-2.6-13-2.6c-2.2,0.4-4.1,1.2-5.7,2.3c-1.6,1.1-2.8,2.5-3.5,4.2c-0.7,1.7-1.3,3.5-1.8,5.4c-0.5,1.9-0.7,3.9-0.6,5.9
			c0.1,2,0.2,3.8,0.3,5.4c0.1,1.6,0.2,3.1,0.3,4.5c0.6,4.7-0.3,8.4-4.4,10.6c-13,5.9-25.7,9.2-35.7,2.1c-9.1-9.5-4.3-22.5,4.4-31.7
			c6.1-6.5,14.7-11.4,25.7-14.8c20.3-6.5,51.3-8.2,68,3.2c8.4,5.5,13.8,11.6,16.2,18.3c1.4,4,2.1,13.5,2.1,28.4v53.8
			c0,6.2,0.3,10.2,0.9,11.9c0.6,1.7,1.4,2.9,2.4,3.6s2.2,1.1,3.6,1.1C386,556.9,389.4,556.2,393.2,554.6z M331.2,542.5V499
			c-15.7,1.5-32.2,7.3-38.7,21.5c-1,1.8-1.7,4.1-2.1,6.8c-0.4,2.7-0.4,5.8,0,9.2c0.4,3.4,2.1,6.5,5,9.2c2.9,2.7,7,4.5,12.2,5.3
			C315.3,552.2,323.2,549.4,331.2,542.5z"/>
		<path class="st1" d="M529,432.9c3.8,3.5,5.7,8.5,5.7,15c0.6,20.7-19.8,27.6-34.3,16.6c-4.3-3.4-6.9-5.3-7.7-5.7
			c-4.1-2-9.3-0.5-13,2.4c-4.6,3.4-8.2,8.4-10.6,14.8c-3.4,10.1-5.1,21.2-5.1,33.3v33.2v8.5c0,5.8,0.4,9.7,1.2,11.5
			c1.4,2.6,3.4,4.6,6,5.9c2.6,1.3,7,2.2,13.3,2.6v5.4h-85v-5.4c6.9-0.6,11.5-2.4,13.9-5.3s3.6-10.6,3.6-23.1l-0.6-52.9
			c0-7.5-0.3-12.3-0.9-14.5c-0.8-2.2-2-4.2-3.5-5.9s-3-3-4.5-3.9s-3-1.7-4.5-2.4c-1.5-0.7-2.8-1.2-3.8-1.4l-1.5-0.3
			c0.8-0.8,2-1.9,3.5-3.2s4.7-3.7,9.5-7.1c4.8-3.4,9.7-6.4,14.7-8.9c4.9-2.5,10.9-4.9,18-7.1c7-2.2,13.8-3.3,20.3-3.3v0.3h0.3v33
			c10.3-14.9,19.3-24.8,27.2-29.8C503.4,427.4,518.4,423.9,529,432.9z"/>
		<path class="st1" d="M681.6,554.9l2.7,3.6c-3.2,4.2-8,8.2-14.4,11.8s-13.5,5.7-21.3,6c-8.3,0.2-15-1.7-20.3-5.7
			c-4.8-3.6-7.8-9.2-8.8-16.6c-23.2,18.8-51.2,31.5-71,14.5c-7.2-6.3-10.3-19.5-7.4-30.5c0.7-2.8,2-6.3,3.8-10.4
			c1.8-4.1,4.6-8.2,8.5-12.1c3.8-3.9,8.5-7.8,14.1-11.5c5.5-3.7,12.8-6.8,21.8-9.4c9-2.5,19.1-4.2,30.4-5V473c0-9.7-0.6-16.3-1.8-20
			c-1.2-3.2-3.1-5.8-5.7-7.6c-4.3-3.3-8.7-2.9-13-2.4c-3,0.4-5.4,1.6-7.3,3.5c-1.8,1.9-3,4.3-3.5,7.3c-0.5,2.9-0.8,5.5-0.9,7.9
			c-0.1,2.3,0,4.8,0.3,7.6c0.8,6.1,0.8,9-4.1,11.9c-13,5.9-25.7,9.2-35.7,2.1c-9.1-9.3-4.3-22.2,4.4-31.4c6.2-6.5,14.7-11.4,25.7-15
			c20.3-6.7,51.3-8.4,68,3.2c8.4,5.7,13.8,11.7,16.2,18.1c1.4,4.2,2.1,13.8,2.1,28.7v53.8c0,6.2,0.3,10.2,0.9,11.8
			c0.6,1.6,1.4,2.8,2.4,3.6c1,0.8,2.2,1.2,3.6,1.2C674.4,557.3,677.8,556.5,681.6,554.9z M619.7,543.1v-43.5
			c-6,0.4-11.6,1.5-16.8,3.2c-5.1,1.7-9.6,4.1-13.5,7.3c-3.8,3.1-6.7,6.7-8.5,10.7c-1,2-1.7,4.4-2.1,7.1c-0.4,2.7-0.4,5.7,0,9.1
			c0.4,3.3,2.1,6.3,5,9.1c2.9,2.7,7,4.5,12.2,5.3C603.7,552.5,611.6,549.8,619.7,543.1z M666.8,353L617.5,401
			c-7.7,7.5-16.7,11.2-27.2,11.2l21.2-59.2L666.8,353L666.8,353z"/>
	</g>
	<polygon class="st3" points="1450,280.4 1501.1,117.7 1553.7,280.4 1727.1,280.4 1588.3,381 1641.8,546.5 1499.8,445.1 
		1364.6,546.5 1418.6,381 1275.6,279.5 	"/>
	<rect x="2.4" y="2.4" class="st4" width="1237.3" height="624.9"/>
	<line class="st4" x1="2.4" y1="305.3" x2="1239.7" y2="305.3"/>
	<rect x="1239.7" y="2.4" class="st4" width="523" height="624.9"/>
</g>
</svg>
